<svg width="436" height="87" viewBox="0 0 436 87" fill="none" xmlns="http://www.w3.org/2000/svg">
<g filter="url(#filter0_f_44_2)">
<path d="M4.608 18.688H18.176L37.44 50.176H37.568V18.688H47.552V64H34.496L14.72 31.744H14.592V64H4.608V18.688ZM57.1795 18.688H87.9635V27.904H67.1635V36.352H86.8115V45.568H67.1635V54.784H89.1155V64H57.1795V18.688ZM108.372 40.32L93.396 18.688H105.94L115.604 34.56L124.884 18.688H136.98L122.324 40.128L138.708 64H126.164L115.092 45.76L104.34 64H92.5L108.372 40.32ZM152.064 27.52H139.136V18.688H174.976V27.52H162.048V64H152.064V27.52ZM171.897 58.496C171.897 57.6853 172.046 56.9173 172.345 56.192C172.643 55.4667 173.049 54.848 173.561 54.336C174.115 53.7813 174.755 53.3547 175.481 53.056C176.206 52.7573 176.974 52.608 177.785 52.608C178.595 52.608 179.363 52.7573 180.089 53.056C180.814 53.3547 181.433 53.7813 181.945 54.336C182.499 54.848 182.926 55.4667 183.225 56.192C183.523 56.9173 183.673 57.6853 183.673 58.496C183.673 59.3067 183.523 60.0747 183.225 60.8C182.926 61.5253 182.499 62.1653 181.945 62.72C181.433 63.232 180.814 63.6373 180.089 63.936C179.363 64.2347 178.595 64.384 177.785 64.384C176.974 64.384 176.206 64.2347 175.481 63.936C174.755 63.6373 174.115 63.232 173.561 62.72C173.049 62.1653 172.643 61.5253 172.345 60.8C172.046 60.0747 171.897 59.3067 171.897 58.496ZM200.37 66.304C200.37 68.3093 200.178 70.1013 199.794 71.68C199.41 73.3013 198.77 74.6667 197.874 75.776C196.978 76.928 195.783 77.8027 194.29 78.4C192.839 79.04 191.026 79.36 188.85 79.36C188.125 79.36 187.378 79.3173 186.61 79.232C185.842 79.1893 185.095 79.0613 184.37 78.848L184.882 70.336C185.65 70.72 186.482 70.912 187.378 70.912C188.189 70.912 188.829 70.6987 189.298 70.272C189.767 69.8453 190.109 69.312 190.322 68.672C190.535 68.032 190.663 67.3493 190.706 66.624C190.749 65.8987 190.77 65.2373 190.77 64.64V32.896H200.37V66.304ZM190.002 23.104C190.002 21.568 190.535 20.2667 191.602 19.2C192.711 18.0907 194.034 17.536 195.57 17.536C197.106 17.536 198.407 18.0907 199.474 19.2C200.583 20.2667 201.138 21.568 201.138 23.104C201.138 24.64 200.583 25.9627 199.474 27.072C198.407 28.1387 197.106 28.672 195.57 28.672C194.034 28.672 192.711 28.1387 191.602 27.072C190.535 25.9627 190.002 24.64 190.002 23.104ZM224.867 42.048C223.459 40.2987 221.603 39.424 219.299 39.424C218.488 39.424 217.699 39.616 216.931 40C216.163 40.384 215.779 41.0453 215.779 41.984C215.779 42.752 216.163 43.328 216.931 43.712C217.742 44.0533 218.744 44.3733 219.939 44.672C221.176 44.928 222.478 45.2267 223.843 45.568C225.251 45.8667 226.552 46.3573 227.747 47.04C228.984 47.7227 229.987 48.6613 230.755 49.856C231.566 51.008 231.971 52.5653 231.971 54.528C231.971 56.5333 231.523 58.1973 230.627 59.52C229.774 60.8 228.664 61.8453 227.299 62.656C225.934 63.424 224.398 63.9573 222.691 64.256C220.984 64.5973 219.299 64.768 217.635 64.768C215.459 64.768 213.262 64.4693 211.043 63.872C208.824 63.232 206.947 62.1227 205.411 60.544L211.235 54.08C212.131 55.1893 213.112 56.0427 214.179 56.64C215.288 57.1947 216.568 57.472 218.019 57.472C219.128 57.472 220.131 57.3227 221.027 57.024C221.923 56.6827 222.371 56.0853 222.371 55.232C222.371 54.4213 221.966 53.824 221.155 53.44C220.387 53.0133 219.384 52.672 218.147 52.416C216.952 52.1173 215.651 51.8187 214.243 51.52C212.878 51.1787 211.576 50.688 210.339 50.048C209.144 49.408 208.142 48.512 207.331 47.36C206.563 46.1653 206.179 44.5867 206.179 42.624C206.179 40.7893 206.542 39.2107 207.267 37.888C208.035 36.5653 209.016 35.4773 210.211 34.624C211.448 33.7707 212.856 33.152 214.435 32.768C216.014 32.3413 217.614 32.128 219.235 32.128C221.283 32.128 223.352 32.4267 225.443 33.024C227.534 33.6213 229.304 34.688 230.755 36.224L224.867 42.048ZM286.678 30.464C285.696 29.2693 284.48 28.352 283.03 27.712C281.622 27.072 279.979 26.752 278.102 26.752C276.224 26.752 274.475 27.1147 272.854 27.84C271.275 28.5653 269.888 29.5893 268.694 30.912C267.542 32.192 266.624 33.728 265.942 35.52C265.302 37.312 264.982 39.2533 264.982 41.344C264.982 43.4773 265.302 45.44 265.942 47.232C266.624 48.9813 267.542 50.5173 268.694 51.84C269.846 53.12 271.19 54.1227 272.726 54.848C274.304 55.5733 275.99 55.936 277.782 55.936C279.83 55.936 281.643 55.5093 283.222 54.656C284.8 53.8027 286.102 52.608 287.126 51.072L295.446 57.28C293.526 59.968 291.094 61.952 288.15 63.232C285.206 64.512 282.176 65.152 279.062 65.152C275.52 65.152 272.256 64.5973 269.27 63.488C266.283 62.3787 263.702 60.8 261.526 58.752C259.35 56.6613 257.643 54.144 256.406 51.2C255.211 48.256 254.614 44.9707 254.614 41.344C254.614 37.7173 255.211 34.432 256.406 31.488C257.643 28.544 259.35 26.048 261.526 24C263.702 21.9093 266.283 20.3093 269.27 19.2C272.256 18.0907 275.52 17.536 279.062 17.536C280.342 17.536 281.664 17.664 283.03 17.92C284.438 18.1333 285.803 18.496 287.126 19.008C288.491 19.52 289.792 20.2027 291.03 21.056C292.267 21.9093 293.376 22.9547 294.358 24.192L286.678 30.464ZM300.858 18.688H318.394C320.698 18.688 322.874 18.9227 324.922 19.392C327.013 19.8187 328.826 20.5653 330.362 21.632C331.941 22.656 333.178 24.064 334.074 25.856C335.013 27.6053 335.482 29.8027 335.482 32.448C335.482 35.648 334.65 38.3787 332.986 40.64C331.322 42.8587 328.89 44.2667 325.69 44.864L337.21 64H325.242L315.77 45.888H310.842V64H300.858V18.688ZM310.842 37.44H316.73C317.626 37.44 318.565 37.4187 319.546 37.376C320.57 37.2907 321.487 37.0987 322.298 36.8C323.109 36.4587 323.77 35.9467 324.282 35.264C324.837 34.5813 325.114 33.6213 325.114 32.384C325.114 31.232 324.879 30.3147 324.41 29.632C323.941 28.9493 323.343 28.4373 322.618 28.096C321.893 27.712 321.061 27.456 320.122 27.328C319.183 27.2 318.266 27.136 317.37 27.136H310.842V37.44ZM380.566 46.528C380.566 49.216 380.161 51.6907 379.35 53.952C378.539 56.2133 377.323 58.176 375.702 59.84C374.123 61.504 372.139 62.8053 369.75 63.744C367.361 64.6827 364.609 65.152 361.494 65.152C358.337 65.152 355.563 64.6827 353.174 63.744C350.785 62.8053 348.779 61.504 347.158 59.84C345.579 58.176 344.385 56.2133 343.574 53.952C342.763 51.6907 342.358 49.216 342.358 46.528V18.688H352.342V46.144C352.342 47.552 352.555 48.8533 352.982 50.048C353.451 51.2427 354.091 52.288 354.902 53.184C355.713 54.0373 356.673 54.72 357.782 55.232C358.934 55.7013 360.171 55.936 361.494 55.936C362.817 55.936 364.033 55.7013 365.142 55.232C366.251 54.72 367.211 54.0373 368.022 53.184C368.833 52.288 369.451 51.2427 369.878 50.048C370.347 48.8533 370.582 47.552 370.582 46.144V18.688H380.566V46.528ZM389.796 18.688H404.772C408.398 18.688 411.833 19.0933 415.076 19.904C418.361 20.7147 421.22 22.0373 423.652 23.872C426.084 25.664 428.004 28.0107 429.412 30.912C430.862 33.8133 431.588 37.3333 431.588 41.472C431.588 45.1413 430.884 48.384 429.476 51.2C428.11 53.9733 426.254 56.32 423.908 58.24C421.561 60.1173 418.852 61.5467 415.78 62.528C412.708 63.5093 409.486 64 406.116 64H389.796V18.688ZM399.78 54.784H404.964C407.268 54.784 409.401 54.5493 411.364 54.08C413.369 53.6107 415.097 52.8427 416.548 51.776C417.998 50.6667 419.129 49.2373 419.94 47.488C420.793 45.696 421.22 43.52 421.22 40.96C421.22 38.7413 420.793 36.8213 419.94 35.2C419.129 33.536 418.02 32.1707 416.612 31.104C415.204 30.0373 413.54 29.248 411.62 28.736C409.742 28.1813 407.758 27.904 405.668 27.904H399.78V54.784Z" fill="white"/>
</g>
<path d="M4.608 18.688H18.176L37.44 50.176H37.568V18.688H47.552V64H34.496L14.72 31.744H14.592V64H4.608V18.688ZM57.1795 18.688H87.9635V27.904H67.1635V36.352H86.8115V45.568H67.1635V54.784H89.1155V64H57.1795V18.688ZM108.372 40.32L93.396 18.688H105.94L115.604 34.56L124.884 18.688H136.98L122.324 40.128L138.708 64H126.164L115.092 45.76L104.34 64H92.5L108.372 40.32ZM152.064 27.52H139.136V18.688H174.976V27.52H162.048V64H152.064V27.52ZM171.897 58.496C171.897 57.6853 172.046 56.9173 172.345 56.192C172.643 55.4667 173.049 54.848 173.561 54.336C174.115 53.7813 174.755 53.3547 175.481 53.056C176.206 52.7573 176.974 52.608 177.785 52.608C178.595 52.608 179.363 52.7573 180.089 53.056C180.814 53.3547 181.433 53.7813 181.945 54.336C182.499 54.848 182.926 55.4667 183.225 56.192C183.523 56.9173 183.673 57.6853 183.673 58.496C183.673 59.3067 183.523 60.0747 183.225 60.8C182.926 61.5253 182.499 62.1653 181.945 62.72C181.433 63.232 180.814 63.6373 180.089 63.936C179.363 64.2347 178.595 64.384 177.785 64.384C176.974 64.384 176.206 64.2347 175.481 63.936C174.755 63.6373 174.115 63.232 173.561 62.72C173.049 62.1653 172.643 61.5253 172.345 60.8C172.046 60.0747 171.897 59.3067 171.897 58.496ZM200.37 66.304C200.37 68.3093 200.178 70.1013 199.794 71.68C199.41 73.3013 198.77 74.6667 197.874 75.776C196.978 76.928 195.783 77.8027 194.29 78.4C192.839 79.04 191.026 79.36 188.85 79.36C188.125 79.36 187.378 79.3173 186.61 79.232C185.842 79.1893 185.095 79.0613 184.37 78.848L184.882 70.336C185.65 70.72 186.482 70.912 187.378 70.912C188.189 70.912 188.829 70.6987 189.298 70.272C189.767 69.8453 190.109 69.312 190.322 68.672C190.535 68.032 190.663 67.3493 190.706 66.624C190.749 65.8987 190.77 65.2373 190.77 64.64V32.896H200.37V66.304ZM190.002 23.104C190.002 21.568 190.535 20.2667 191.602 19.2C192.711 18.0907 194.034 17.536 195.57 17.536C197.106 17.536 198.407 18.0907 199.474 19.2C200.583 20.2667 201.138 21.568 201.138 23.104C201.138 24.64 200.583 25.9627 199.474 27.072C198.407 28.1387 197.106 28.672 195.57 28.672C194.034 28.672 192.711 28.1387 191.602 27.072C190.535 25.9627 190.002 24.64 190.002 23.104ZM224.867 42.048C223.459 40.2987 221.603 39.424 219.299 39.424C218.488 39.424 217.699 39.616 216.931 40C216.163 40.384 215.779 41.0453 215.779 41.984C215.779 42.752 216.163 43.328 216.931 43.712C217.742 44.0533 218.744 44.3733 219.939 44.672C221.176 44.928 222.478 45.2267 223.843 45.568C225.251 45.8667 226.552 46.3573 227.747 47.04C228.984 47.7227 229.987 48.6613 230.755 49.856C231.566 51.008 231.971 52.5653 231.971 54.528C231.971 56.5333 231.523 58.1973 230.627 59.52C229.774 60.8 228.664 61.8453 227.299 62.656C225.934 63.424 224.398 63.9573 222.691 64.256C220.984 64.5973 219.299 64.768 217.635 64.768C215.459 64.768 213.262 64.4693 211.043 63.872C208.824 63.232 206.947 62.1227 205.411 60.544L211.235 54.08C212.131 55.1893 213.112 56.0427 214.179 56.64C215.288 57.1947 216.568 57.472 218.019 57.472C219.128 57.472 220.131 57.3227 221.027 57.024C221.923 56.6827 222.371 56.0853 222.371 55.232C222.371 54.4213 221.966 53.824 221.155 53.44C220.387 53.0133 219.384 52.672 218.147 52.416C216.952 52.1173 215.651 51.8187 214.243 51.52C212.878 51.1787 211.576 50.688 210.339 50.048C209.144 49.408 208.142 48.512 207.331 47.36C206.563 46.1653 206.179 44.5867 206.179 42.624C206.179 40.7893 206.542 39.2107 207.267 37.888C208.035 36.5653 209.016 35.4773 210.211 34.624C211.448 33.7707 212.856 33.152 214.435 32.768C216.014 32.3413 217.614 32.128 219.235 32.128C221.283 32.128 223.352 32.4267 225.443 33.024C227.534 33.6213 229.304 34.688 230.755 36.224L224.867 42.048ZM286.678 30.464C285.696 29.2693 284.48 28.352 283.03 27.712C281.622 27.072 279.979 26.752 278.102 26.752C276.224 26.752 274.475 27.1147 272.854 27.84C271.275 28.5653 269.888 29.5893 268.694 30.912C267.542 32.192 266.624 33.728 265.942 35.52C265.302 37.312 264.982 39.2533 264.982 41.344C264.982 43.4773 265.302 45.44 265.942 47.232C266.624 48.9813 267.542 50.5173 268.694 51.84C269.846 53.12 271.19 54.1227 272.726 54.848C274.304 55.5733 275.99 55.936 277.782 55.936C279.83 55.936 281.643 55.5093 283.222 54.656C284.8 53.8027 286.102 52.608 287.126 51.072L295.446 57.28C293.526 59.968 291.094 61.952 288.15 63.232C285.206 64.512 282.176 65.152 279.062 65.152C275.52 65.152 272.256 64.5973 269.27 63.488C266.283 62.3787 263.702 60.8 261.526 58.752C259.35 56.6613 257.643 54.144 256.406 51.2C255.211 48.256 254.614 44.9707 254.614 41.344C254.614 37.7173 255.211 34.432 256.406 31.488C257.643 28.544 259.35 26.048 261.526 24C263.702 21.9093 266.283 20.3093 269.27 19.2C272.256 18.0907 275.52 17.536 279.062 17.536C280.342 17.536 281.664 17.664 283.03 17.92C284.438 18.1333 285.803 18.496 287.126 19.008C288.491 19.52 289.792 20.2027 291.03 21.056C292.267 21.9093 293.376 22.9547 294.358 24.192L286.678 30.464ZM300.858 18.688H318.394C320.698 18.688 322.874 18.9227 324.922 19.392C327.013 19.8187 328.826 20.5653 330.362 21.632C331.941 22.656 333.178 24.064 334.074 25.856C335.013 27.6053 335.482 29.8027 335.482 32.448C335.482 35.648 334.65 38.3787 332.986 40.64C331.322 42.8587 328.89 44.2667 325.69 44.864L337.21 64H325.242L315.77 45.888H310.842V64H300.858V18.688ZM310.842 37.44H316.73C317.626 37.44 318.565 37.4187 319.546 37.376C320.57 37.2907 321.487 37.0987 322.298 36.8C323.109 36.4587 323.77 35.9467 324.282 35.264C324.837 34.5813 325.114 33.6213 325.114 32.384C325.114 31.232 324.879 30.3147 324.41 29.632C323.941 28.9493 323.343 28.4373 322.618 28.096C321.893 27.712 321.061 27.456 320.122 27.328C319.183 27.2 318.266 27.136 317.37 27.136H310.842V37.44ZM380.566 46.528C380.566 49.216 380.161 51.6907 379.35 53.952C378.539 56.2133 377.323 58.176 375.702 59.84C374.123 61.504 372.139 62.8053 369.75 63.744C367.361 64.6827 364.609 65.152 361.494 65.152C358.337 65.152 355.563 64.6827 353.174 63.744C350.785 62.8053 348.779 61.504 347.158 59.84C345.579 58.176 344.385 56.2133 343.574 53.952C342.763 51.6907 342.358 49.216 342.358 46.528V18.688H352.342V46.144C352.342 47.552 352.555 48.8533 352.982 50.048C353.451 51.2427 354.091 52.288 354.902 53.184C355.713 54.0373 356.673 54.72 357.782 55.232C358.934 55.7013 360.171 55.936 361.494 55.936C362.817 55.936 364.033 55.7013 365.142 55.232C366.251 54.72 367.211 54.0373 368.022 53.184C368.833 52.288 369.451 51.2427 369.878 50.048C370.347 48.8533 370.582 47.552 370.582 46.144V18.688H380.566V46.528ZM389.796 18.688H404.772C408.398 18.688 411.833 19.0933 415.076 19.904C418.361 20.7147 421.22 22.0373 423.652 23.872C426.084 25.664 428.004 28.0107 429.412 30.912C430.862 33.8133 431.588 37.3333 431.588 41.472C431.588 45.1413 430.884 48.384 429.476 51.2C428.11 53.9733 426.254 56.32 423.908 58.24C421.561 60.1173 418.852 61.5467 415.78 62.528C412.708 63.5093 409.486 64 406.116 64H389.796V18.688ZM399.78 54.784H404.964C407.268 54.784 409.401 54.5493 411.364 54.08C413.369 53.6107 415.097 52.8427 416.548 51.776C417.998 50.6667 419.129 49.2373 419.94 47.488C420.793 45.696 421.22 43.52 421.22 40.96C421.22 38.7413 420.793 36.8213 419.94 35.2C419.129 33.536 418.02 32.1707 416.612 31.104C415.204 30.0373 413.54 29.248 411.62 28.736C409.742 28.1813 407.758 27.904 405.668 27.904H399.78V54.784Z" fill="white"/>
<defs>
<filter id="filter0_f_44_2" x="0.607971" y="13.536" width="434.98" height="69.824" filterUnits="userSpaceOnUse" color-interpolation-filters="sRGB">
<feFlood flood-opacity="0" result="BackgroundImageFix"/>
<feBlend mode="normal" in="SourceGraphic" in2="BackgroundImageFix" result="shape"/>
<feGaussianBlur stdDeviation="2" result="effect1_foregroundBlur_44_2"/>
</filter>
</defs>
</svg>
