<svg width="213" height="87" viewBox="0 0 213 87" fill="none" xmlns="http://www.w3.org/2000/svg">
<g filter="url(#filter0_f_43_5)">
<path d="M4.176 41.344C4.176 37.7173 4.77333 34.432 5.968 31.488C7.20533 28.544 8.912 26.048 11.088 24C13.264 21.9093 15.8453 20.3093 18.832 19.2C21.8187 18.0907 25.0827 17.536 28.624 17.536C32.1653 17.536 35.4293 18.0907 38.416 19.2C41.4027 20.3093 43.984 21.9093 46.16 24C48.336 26.048 50.0213 28.544 51.216 31.488C52.4533 34.432 53.072 37.7173 53.072 41.344C53.072 44.9707 52.4533 48.256 51.216 51.2C50.0213 54.144 48.336 56.6613 46.16 58.752C43.984 60.8 41.4027 62.3787 38.416 63.488C35.4293 64.5973 32.1653 65.152 28.624 65.152C25.0827 65.152 21.8187 64.5973 18.832 63.488C15.8453 62.3787 13.264 60.8 11.088 58.752C8.912 56.6613 7.20533 54.144 5.968 51.2C4.77333 48.256 4.176 44.9707 4.176 41.344ZM14.544 41.344C14.544 43.4773 14.864 45.44 15.504 47.232C16.1867 48.9813 17.1467 50.5173 18.384 51.84C19.6213 53.12 21.0933 54.1227 22.8 54.848C24.5493 55.5733 26.4907 55.936 28.624 55.936C30.7573 55.936 32.6773 55.5733 34.384 54.848C36.1333 54.1227 37.6267 53.12 38.864 51.84C40.1013 50.5173 41.04 48.9813 41.68 47.232C42.3627 45.44 42.704 43.4773 42.704 41.344C42.704 39.2533 42.3627 37.312 41.68 35.52C41.04 33.728 40.1013 32.192 38.864 30.912C37.6267 29.5893 36.1333 28.5653 34.384 27.84C32.6773 27.1147 30.7573 26.752 28.624 26.752C26.4907 26.752 24.5493 27.1147 22.8 27.84C21.0933 28.5653 19.6213 29.5893 18.384 30.912C17.1467 32.192 16.1867 33.728 15.504 35.52C14.864 37.312 14.544 39.2533 14.544 41.344ZM89.49 30.464C88.5087 29.2693 87.2927 28.352 85.842 27.712C84.434 27.072 82.7913 26.752 80.914 26.752C79.0367 26.752 77.2873 27.1147 75.666 27.84C74.0873 28.5653 72.7007 29.5893 71.506 30.912C70.354 32.192 69.4367 33.728 68.754 35.52C68.114 37.312 67.794 39.2533 67.794 41.344C67.794 43.4773 68.114 45.44 68.754 47.232C69.4367 48.9813 70.354 50.5173 71.506 51.84C72.658 53.12 74.002 54.1227 75.538 54.848C77.1167 55.5733 78.802 55.936 80.594 55.936C82.642 55.936 84.4553 55.5093 86.034 54.656C87.6127 53.8027 88.914 52.608 89.938 51.072L98.258 57.28C96.338 59.968 93.906 61.952 90.962 63.232C88.018 64.512 84.9887 65.152 81.874 65.152C78.3327 65.152 75.0687 64.5973 72.082 63.488C69.0953 62.3787 66.514 60.8 64.338 58.752C62.162 56.6613 60.4553 54.144 59.218 51.2C58.0233 48.256 57.426 44.9707 57.426 41.344C57.426 37.7173 58.0233 34.432 59.218 31.488C60.4553 28.544 62.162 26.048 64.338 24C66.514 21.9093 69.0953 20.3093 72.082 19.2C75.0687 18.0907 78.3327 17.536 81.874 17.536C83.154 17.536 84.4767 17.664 85.842 17.92C87.25 18.1333 88.6153 18.496 89.938 19.008C91.3033 19.52 92.6047 20.2027 93.842 21.056C95.0793 21.9093 96.1887 22.9547 97.17 24.192L89.49 30.464ZM98.9345 18.688H109.815L117.047 47.744H117.175L126.647 18.688H135.927L145.335 48.512H145.463L153.079 18.688H163.191L149.943 64H141.047L131.062 32.64H130.935L120.951 64H112.375L98.9345 18.688ZM180.958 18.688H189.214L208.926 64H197.662L193.757 54.4H176.158L172.382 64H161.373L180.958 18.688ZM184.798 31.872L179.294 45.952H190.366L184.798 31.872Z" fill="white"/>
</g>
<path d="M4.176 41.344C4.176 37.7173 4.77333 34.432 5.968 31.488C7.20533 28.544 8.912 26.048 11.088 24C13.264 21.9093 15.8453 20.3093 18.832 19.2C21.8187 18.0907 25.0827 17.536 28.624 17.536C32.1653 17.536 35.4293 18.0907 38.416 19.2C41.4027 20.3093 43.984 21.9093 46.16 24C48.336 26.048 50.0213 28.544 51.216 31.488C52.4533 34.432 53.072 37.7173 53.072 41.344C53.072 44.9707 52.4533 48.256 51.216 51.2C50.0213 54.144 48.336 56.6613 46.16 58.752C43.984 60.8 41.4027 62.3787 38.416 63.488C35.4293 64.5973 32.1653 65.152 28.624 65.152C25.0827 65.152 21.8187 64.5973 18.832 63.488C15.8453 62.3787 13.264 60.8 11.088 58.752C8.912 56.6613 7.20533 54.144 5.968 51.2C4.77333 48.256 4.176 44.9707 4.176 41.344ZM14.544 41.344C14.544 43.4773 14.864 45.44 15.504 47.232C16.1867 48.9813 17.1467 50.5173 18.384 51.84C19.6213 53.12 21.0933 54.1227 22.8 54.848C24.5493 55.5733 26.4907 55.936 28.624 55.936C30.7573 55.936 32.6773 55.5733 34.384 54.848C36.1333 54.1227 37.6267 53.12 38.864 51.84C40.1013 50.5173 41.04 48.9813 41.68 47.232C42.3627 45.44 42.704 43.4773 42.704 41.344C42.704 39.2533 42.3627 37.312 41.68 35.52C41.04 33.728 40.1013 32.192 38.864 30.912C37.6267 29.5893 36.1333 28.5653 34.384 27.84C32.6773 27.1147 30.7573 26.752 28.624 26.752C26.4907 26.752 24.5493 27.1147 22.8 27.84C21.0933 28.5653 19.6213 29.5893 18.384 30.912C17.1467 32.192 16.1867 33.728 15.504 35.52C14.864 37.312 14.544 39.2533 14.544 41.344ZM89.49 30.464C88.5087 29.2693 87.2927 28.352 85.842 27.712C84.434 27.072 82.7913 26.752 80.914 26.752C79.0367 26.752 77.2873 27.1147 75.666 27.84C74.0873 28.5653 72.7007 29.5893 71.506 30.912C70.354 32.192 69.4367 33.728 68.754 35.52C68.114 37.312 67.794 39.2533 67.794 41.344C67.794 43.4773 68.114 45.44 68.754 47.232C69.4367 48.9813 70.354 50.5173 71.506 51.84C72.658 53.12 74.002 54.1227 75.538 54.848C77.1167 55.5733 78.802 55.936 80.594 55.936C82.642 55.936 84.4553 55.5093 86.034 54.656C87.6127 53.8027 88.914 52.608 89.938 51.072L98.258 57.28C96.338 59.968 93.906 61.952 90.962 63.232C88.018 64.512 84.9887 65.152 81.874 65.152C78.3327 65.152 75.0687 64.5973 72.082 63.488C69.0953 62.3787 66.514 60.8 64.338 58.752C62.162 56.6613 60.4553 54.144 59.218 51.2C58.0233 48.256 57.426 44.9707 57.426 41.344C57.426 37.7173 58.0233 34.432 59.218 31.488C60.4553 28.544 62.162 26.048 64.338 24C66.514 21.9093 69.0953 20.3093 72.082 19.2C75.0687 18.0907 78.3327 17.536 81.874 17.536C83.154 17.536 84.4767 17.664 85.842 17.92C87.25 18.1333 88.6153 18.496 89.938 19.008C91.3033 19.52 92.6047 20.2027 93.842 21.056C95.0793 21.9093 96.1887 22.9547 97.17 24.192L89.49 30.464ZM98.9345 18.688H109.815L117.047 47.744H117.175L126.647 18.688H135.927L145.335 48.512H145.463L153.079 18.688H163.191L149.943 64H141.047L131.062 32.64H130.935L120.951 64H112.375L98.9345 18.688ZM180.958 18.688H189.214L208.926 64H197.662L193.757 54.4H176.158L172.382 64H161.373L180.958 18.688ZM184.798 31.872L179.294 45.952H190.366L184.798 31.872Z" fill="white"/>
<defs>
<filter id="filter0_f_43_5" x="0.175995" y="13.536" width="212.75" height="55.616" filterUnits="userSpaceOnUse" color-interpolation-filters="sRGB">
<feFlood flood-opacity="0" result="BackgroundImageFix"/>
<feBlend mode="normal" in="SourceGraphic" in2="BackgroundImageFix" result="shape"/>
<feGaussianBlur stdDeviation="2" result="effect1_foregroundBlur_43_5"/>
</filter>
</defs>
</svg>
